<?xml version="1.0" encoding="utf-8" standalone="no"?>
<!DOCTYPE svg PUBLIC "-//W3C//DTD SVG 1.1//EN"
  "http://www.w3.org/Graphics/SVG/1.1/DTD/svg11.dtd">
<!-- Created with matplotlib (https://matplotlib.org/) -->
<svg height="522.72pt" version="1.1" viewBox="0 0 748.8 522.72" width="748.8pt" xmlns="http://www.w3.org/2000/svg" xmlns:xlink="http://www.w3.org/1999/xlink">
 <defs>
  <style type="text/css">
*{stroke-linecap:butt;stroke-linejoin:round;}
  </style>
 </defs>
 <g id="figure_1">
  <g id="patch_1">
   <path d="M 0 522.72 
L 748.8 522.72 
L 748.8 0 
L 0 0 
z
" style="fill:#ffffff;"/>
  </g>
  <g id="axes_1">
   <g id="patch_2">
    <path d="M 93.6 465.2208 
L 673.92 465.2208 
L 673.92 62.7264 
L 93.6 62.7264 
z
" style="fill:#ffffff;"/>
   </g>
   <g id="PathCollection_1">
    <defs>
     <path d="M 0 3 
C 0.795609 3 1.55874 2.683901 2.12132 2.12132 
C 2.683901 1.55874 3 0.795609 3 0 
C 3 -0.795609 2.683901 -1.55874 2.12132 -2.12132 
C 1.55874 -2.683901 0.795609 -3 0 -3 
C -0.795609 -3 -1.55874 -2.683901 -2.12132 -2.12132 
C -2.683901 -1.55874 -3 -0.795609 -3 0 
C -3 0.795609 -2.683901 1.55874 -2.12132 2.12132 
C -1.55874 2.683901 -0.795609 3 0 3 
z
" id="m72b608f0b4" style="stroke:#1f77b4;"/>
    </defs>
    <g clip-path="url(#pcb41776b3d)">
     <use style="fill:#1f77b4;stroke:#1f77b4;" x="123.442089" xlink:href="#m72b608f0b4" y="304.544735"/>
     <use style="fill:#1f77b4;stroke:#1f77b4;" x="128.70103" xlink:href="#m72b608f0b4" y="355.754116"/>
     <use style="fill:#1f77b4;stroke:#1f77b4;" x="133.960038" xlink:href="#m72b608f0b4" y="397.055467"/>
     <use style="fill:#1f77b4;stroke:#1f77b4;" x="139.218995" xlink:href="#m72b608f0b4" y="426.245613"/>
     <use style="fill:#1f77b4;stroke:#1f77b4;" x="144.477786" xlink:href="#m72b608f0b4" y="441.951223"/>
     <use style="fill:#1f77b4;stroke:#1f77b4;" x="149.736743" xlink:href="#m72b608f0b4" y="443.715912"/>
     <use style="fill:#1f77b4;stroke:#1f77b4;" x="154.995701" xlink:href="#m72b608f0b4" y="432.012769"/>
     <use style="fill:#1f77b4;stroke:#1f77b4;" x="160.254658" xlink:href="#m72b608f0b4" y="408.190665"/>
     <use style="fill:#1f77b4;stroke:#1f77b4;" x="165.513616" xlink:href="#m72b608f0b4" y="374.357323"/>
     <use style="fill:#1f77b4;stroke:#1f77b4;" x="170.772573" xlink:href="#m72b608f0b4" y="333.207503"/>
     <use style="fill:#1f77b4;stroke:#1f77b4;" x="176.031531" xlink:href="#m72b608f0b4" y="287.811812"/>
     <use style="fill:#1f77b4;stroke:#1f77b4;" x="181.290488" xlink:href="#m72b608f0b4" y="241.384511"/>
     <use style="fill:#1f77b4;stroke:#1f77b4;" x="186.549446" xlink:href="#m72b608f0b4" y="197.044709"/>
     <use style="fill:#1f77b4;stroke:#1f77b4;" x="191.808403" xlink:href="#m72b608f0b4" y="157.594849"/>
     <use style="fill:#1f77b4;stroke:#1f77b4;" x="197.067193" xlink:href="#m72b608f0b4" y="125.327654"/>
     <use style="fill:#1f77b4;stroke:#1f77b4;" x="202.326151" xlink:href="#m72b608f0b4" y="101.880561"/>
     <use style="fill:#1f77b4;stroke:#1f77b4;" x="207.585108" xlink:href="#m72b608f0b4" y="88.143671"/>
     <use style="fill:#1f77b4;stroke:#1f77b4;" x="212.844066" xlink:href="#m72b608f0b4" y="84.231288"/>
     <use style="fill:#1f77b4;stroke:#1f77b4;" x="218.103023" xlink:href="#m72b608f0b4" y="89.511036"/>
     <use style="fill:#1f77b4;stroke:#1f77b4;" x="223.361981" xlink:href="#m72b608f0b4" y="102.693702"/>
     <use style="fill:#1f77b4;stroke:#1f77b4;" x="228.620938" xlink:href="#m72b608f0b4" y="121.96866"/>
     <use style="fill:#1f77b4;stroke:#1f77b4;" x="233.879896" xlink:href="#m72b608f0b4" y="145.174078"/>
     <use style="fill:#1f77b4;stroke:#1f77b4;" x="239.138853" xlink:href="#m72b608f0b4" y="169.989729"/>
     <use style="fill:#1f77b4;stroke:#1f77b4;" x="244.397811" xlink:href="#m72b608f0b4" y="194.131303"/>
     <use style="fill:#1f77b4;stroke:#1f77b4;" x="249.656601" xlink:href="#m72b608f0b4" y="215.53385"/>
     <use style="fill:#1f77b4;stroke:#1f77b4;" x="254.915558" xlink:href="#m72b608f0b4" y="232.508449"/>
     <use style="fill:#1f77b4;stroke:#1f77b4;" x="260.174516" xlink:href="#m72b608f0b4" y="243.859848"/>
     <use style="fill:#1f77b4;stroke:#1f77b4;" x="265.433473" xlink:href="#m72b608f0b4" y="248.958235"/>
     <use style="fill:#1f77b4;stroke:#1f77b4;" x="270.692431" xlink:href="#m72b608f0b4" y="247.759106"/>
     <use style="fill:#1f77b4;stroke:#1f77b4;" x="275.951388" xlink:href="#m72b608f0b4" y="240.77564"/>
     <use style="fill:#1f77b4;stroke:#1f77b4;" x="281.210513" xlink:href="#m72b608f0b4" y="229.000012"/>
     <use style="fill:#1f77b4;stroke:#1f77b4;" x="286.468466" xlink:href="#m72b608f0b4" y="213.793621"/>
     <use style="fill:#1f77b4;stroke:#1f77b4;" x="291.728093" xlink:href="#m72b608f0b4" y="196.746538"/>
     <use style="fill:#1f77b4;stroke:#1f77b4;" x="296.98772" xlink:href="#m72b608f0b4" y="179.525831"/>
     <use style="fill:#1f77b4;stroke:#1f77b4;" x="302.245673" xlink:href="#m72b608f0b4" y="163.723951"/>
     <use style="fill:#1f77b4;stroke:#1f77b4;" x="307.5053" xlink:href="#m72b608f0b4" y="150.720737"/>
     <use style="fill:#1f77b4;stroke:#1f77b4;" x="312.763254" xlink:href="#m72b608f0b4" y="141.570545"/>
     <use style="fill:#1f77b4;stroke:#1f77b4;" x="318.022881" xlink:href="#m72b608f0b4" y="136.923353"/>
     <use style="fill:#1f77b4;stroke:#1f77b4;" x="323.282508" xlink:href="#m72b608f0b4" y="136.985517"/>
     <use style="fill:#1f77b4;stroke:#1f77b4;" x="328.540461" xlink:href="#m72b608f0b4" y="141.521387"/>
     <use style="fill:#1f77b4;stroke:#1f77b4;" x="333.800088" xlink:href="#m72b608f0b4" y="149.895246"/>
     <use style="fill:#1f77b4;stroke:#1f77b4;" x="339.058041" xlink:href="#m72b608f0b4" y="161.146598"/>
     <use style="fill:#1f77b4;stroke:#1f77b4;" x="344.317668" xlink:href="#m72b608f0b4" y="174.092362"/>
     <use style="fill:#1f77b4;stroke:#1f77b4;" x="349.577295" xlink:href="#m72b608f0b4" y="187.444713"/>
     <use style="fill:#1f77b4;stroke:#1f77b4;" x="354.835248" xlink:href="#m72b608f0b4" y="199.933418"/>
     <use style="fill:#1f77b4;stroke:#1f77b4;" x="360.094875" xlink:href="#m72b608f0b4" y="210.422279"/>
     <use style="fill:#1f77b4;stroke:#1f77b4;" x="365.352829" xlink:href="#m72b608f0b4" y="218.008292"/>
     <use style="fill:#1f77b4;stroke:#1f77b4;" x="370.612456" xlink:href="#m72b608f0b4" y="222.095772"/>
     <use style="fill:#1f77b4;stroke:#1f77b4;" x="375.872083" xlink:href="#m72b608f0b4" y="222.439582"/>
     <use style="fill:#1f77b4;stroke:#1f77b4;" x="381.130036" xlink:href="#m72b608f0b4" y="219.154445"/>
     <use style="fill:#1f77b4;stroke:#1f77b4;" x="386.389663" xlink:href="#m72b608f0b4" y="212.690601"/>
     <use style="fill:#1f77b4;stroke:#1f77b4;" x="391.647616" xlink:href="#m72b608f0b4" y="203.77958"/>
     <use style="fill:#1f77b4;stroke:#1f77b4;" x="396.907243" xlink:href="#m72b608f0b4" y="193.355806"/>
     <use style="fill:#1f77b4;stroke:#1f77b4;" x="402.165196" xlink:href="#m72b608f0b4" y="182.462099"/>
     <use style="fill:#1f77b4;stroke:#1f77b4;" x="407.424823" xlink:href="#m72b608f0b4" y="172.148281"/>
     <use style="fill:#1f77b4;stroke:#1f77b4;" x="412.68445" xlink:href="#m72b608f0b4" y="163.372803"/>
     <use style="fill:#1f77b4;stroke:#1f77b4;" x="417.942403" xlink:href="#m72b608f0b4" y="156.915939"/>
     <use style="fill:#1f77b4;stroke:#1f77b4;" x="423.202031" xlink:href="#m72b608f0b4" y="153.312705"/>
     <use style="fill:#1f77b4;stroke:#1f77b4;" x="428.459984" xlink:href="#m72b608f0b4" y="152.810324"/>
     <use style="fill:#1f77b4;stroke:#1f77b4;" x="433.719611" xlink:href="#m72b608f0b4" y="155.354685"/>
     <use style="fill:#1f77b4;stroke:#1f77b4;" x="438.979238" xlink:href="#m72b608f0b4" y="160.604902"/>
     <use style="fill:#1f77b4;stroke:#1f77b4;" x="444.237191" xlink:href="#m72b608f0b4" y="167.974476"/>
     <use style="fill:#1f77b4;stroke:#1f77b4;" x="449.496818" xlink:href="#m72b608f0b4" y="176.694174"/>
     <use style="fill:#1f77b4;stroke:#1f77b4;" x="454.754771" xlink:href="#m72b608f0b4" y="185.890326"/>
     <use style="fill:#1f77b4;stroke:#1f77b4;" x="460.014398" xlink:href="#m72b608f0b4" y="194.670553"/>
     <use style="fill:#1f77b4;stroke:#1f77b4;" x="465.274025" xlink:href="#m72b608f0b4" y="202.208661"/>
     <use style="fill:#1f77b4;stroke:#1f77b4;" x="470.531978" xlink:href="#m72b608f0b4" y="207.820944"/>
     <use style="fill:#1f77b4;stroke:#1f77b4;" x="475.791605" xlink:href="#m72b608f0b4" y="211.026675"/>
     <use style="fill:#1f77b4;stroke:#1f77b4;" x="481.049559" xlink:href="#m72b608f0b4" y="211.588297"/>
     <use style="fill:#1f77b4;stroke:#1f77b4;" x="486.309186" xlink:href="#m72b608f0b4" y="209.52675"/>
     <use style="fill:#1f77b4;stroke:#1f77b4;" x="491.567139" xlink:href="#m72b608f0b4" y="205.112463"/>
     <use style="fill:#1f77b4;stroke:#1f77b4;" x="496.826766" xlink:href="#m72b608f0b4" y="198.832963"/>
     <use style="fill:#1f77b4;stroke:#1f77b4;" x="502.086393" xlink:href="#m72b608f0b4" y="191.340493"/>
     <use style="fill:#1f77b4;stroke:#1f77b4;" x="507.344346" xlink:href="#m72b608f0b4" y="183.385768"/>
     <use style="fill:#1f77b4;stroke:#1f77b4;" x="512.603973" xlink:href="#m72b608f0b4" y="175.74376"/>
     <use style="fill:#1f77b4;stroke:#1f77b4;" x="517.861926" xlink:href="#m72b608f0b4" y="169.139481"/>
     <use style="fill:#1f77b4;stroke:#1f77b4;" x="523.121553" xlink:href="#m72b608f0b4" y="164.179978"/>
     <use style="fill:#1f77b4;stroke:#1f77b4;" x="528.38118" xlink:href="#m72b608f0b4" y="161.299562"/>
     <use style="fill:#1f77b4;stroke:#1f77b4;" x="533.639134" xlink:href="#m72b608f0b4" y="160.722727"/>
     <use style="fill:#1f77b4;stroke:#1f77b4;" x="538.898761" xlink:href="#m72b608f0b4" y="162.447803"/>
     <use style="fill:#1f77b4;stroke:#1f77b4;" x="544.156714" xlink:href="#m72b608f0b4" y="166.252682"/>
     <use style="fill:#1f77b4;stroke:#1f77b4;" x="549.416341" xlink:href="#m72b608f0b4" y="171.721427"/>
     <use style="fill:#1f77b4;stroke:#1f77b4;" x="554.675968" xlink:href="#m72b608f0b4" y="178.288419"/>
     <use style="fill:#1f77b4;stroke:#1f77b4;" x="559.933921" xlink:href="#m72b608f0b4" y="185.296232"/>
     <use style="fill:#1f77b4;stroke:#1f77b4;" x="565.193548" xlink:href="#m72b608f0b4" y="192.060389"/>
     <use style="fill:#1f77b4;stroke:#1f77b4;" x="570.451501" xlink:href="#m72b608f0b4" y="197.935585"/>
     <use style="fill:#1f77b4;stroke:#1f77b4;" x="575.711128" xlink:href="#m72b608f0b4" y="202.376599"/>
     <use style="fill:#1f77b4;stroke:#1f77b4;" x="580.970755" xlink:href="#m72b608f0b4" y="204.988254"/>
     <use style="fill:#1f77b4;stroke:#1f77b4;" x="586.228708" xlink:href="#m72b608f0b4" y="205.55978"/>
     <use style="fill:#1f77b4;stroke:#1f77b4;" x="591.488336" xlink:href="#m72b608f0b4" y="204.081152"/>
     <use style="fill:#1f77b4;stroke:#1f77b4;" x="596.746289" xlink:href="#m72b608f0b4" y="200.739459"/>
     <use style="fill:#1f77b4;stroke:#1f77b4;" x="602.005916" xlink:href="#m72b608f0b4" y="195.897005"/>
     <use style="fill:#1f77b4;stroke:#1f77b4;" x="607.263869" xlink:href="#m72b608f0b4" y="190.052509"/>
     <use style="fill:#1f77b4;stroke:#1f77b4;" x="612.523496" xlink:href="#m72b608f0b4" y="183.790633"/>
     <use style="fill:#1f77b4;stroke:#1f77b4;" x="617.783123" xlink:href="#m72b608f0b4" y="177.723934"/>
     <use style="fill:#1f77b4;stroke:#1f77b4;" x="623.041076" xlink:href="#m72b608f0b4" y="172.433447"/>
     <use style="fill:#1f77b4;stroke:#1f77b4;" x="628.300703" xlink:href="#m72b608f0b4" y="168.41368"/>
     <use style="fill:#1f77b4;stroke:#1f77b4;" x="633.558656" xlink:href="#m72b608f0b4" y="166.026756"/>
     <use style="fill:#1f77b4;stroke:#1f77b4;" x="638.818283" xlink:href="#m72b608f0b4" y="165.470205"/>
     <use style="fill:#1f77b4;stroke:#1f77b4;" x="644.077911" xlink:href="#m72b608f0b4" y="166.761387"/>
    </g>
   </g>
   <g id="matplotlib.axis_1">
    <g id="xtick_1">
     <g id="line2d_1">
      <path clip-path="url(#pcb41776b3d)" d="M 112.924208 465.2208 
L 112.924208 62.7264 
" style="fill:none;stroke:#b0b0b0;stroke-linecap:square;stroke-width:0.8;"/>
     </g>
     <g id="line2d_2">
      <defs>
       <path d="M 0 0 
L 0 3.5 
" id="m8a0bb54f88" style="stroke:#000000;stroke-width:0.8;"/>
      </defs>
      <g>
       <use style="stroke:#000000;stroke-width:0.8;" x="112.924208" xlink:href="#m8a0bb54f88" y="465.2208"/>
      </g>
     </g>
     <g id="text_1">
      <!-- 0 -->
      <defs>
       <path d="M 31.78125 66.40625 
Q 24.171875 66.40625 20.328125 58.90625 
Q 16.5 51.421875 16.5 36.375 
Q 16.5 21.390625 20.328125 13.890625 
Q 24.171875 6.390625 31.78125 6.390625 
Q 39.453125 6.390625 43.28125 13.890625 
Q 47.125 21.390625 47.125 36.375 
Q 47.125 51.421875 43.28125 58.90625 
Q 39.453125 66.40625 31.78125 66.40625 
z
M 31.78125 74.21875 
Q 44.046875 74.21875 50.515625 64.515625 
Q 56.984375 54.828125 56.984375 36.375 
Q 56.984375 17.96875 50.515625 8.265625 
Q 44.046875 -1.421875 31.78125 -1.421875 
Q 19.53125 -1.421875 13.0625 8.265625 
Q 6.59375 17.96875 6.59375 36.375 
Q 6.59375 54.828125 13.0625 64.515625 
Q 19.53125 74.21875 31.78125 74.21875 
z
" id="DejaVuSans-48"/>
      </defs>
      <g transform="translate(109.742958 479.819238)scale(0.1 -0.1)">
       <use xlink:href="#DejaVuSans-48"/>
      </g>
     </g>
    </g>
    <g id="xtick_2">
     <g id="line2d_3">
      <path clip-path="url(#pcb41776b3d)" d="M 196.62292 465.2208 
L 196.62292 62.7264 
" style="fill:none;stroke:#b0b0b0;stroke-linecap:square;stroke-width:0.8;"/>
     </g>
     <g id="line2d_4">
      <g>
       <use style="stroke:#000000;stroke-width:0.8;" x="196.62292" xlink:href="#m8a0bb54f88" y="465.2208"/>
      </g>
     </g>
     <g id="text_2">
      <!-- 5 -->
      <defs>
       <path d="M 10.796875 72.90625 
L 49.515625 72.90625 
L 49.515625 64.59375 
L 19.828125 64.59375 
L 19.828125 46.734375 
Q 21.96875 47.46875 24.109375 47.828125 
Q 26.265625 48.1875 28.421875 48.1875 
Q 40.625 48.1875 47.75 41.5 
Q 54.890625 34.8125 54.890625 23.390625 
Q 54.890625 11.625 47.5625 5.09375 
Q 40.234375 -1.421875 26.90625 -1.421875 
Q 22.3125 -1.421875 17.546875 -0.640625 
Q 12.796875 0.140625 7.71875 1.703125 
L 7.71875 11.625 
Q 12.109375 9.234375 16.796875 8.0625 
Q 21.484375 6.890625 26.703125 6.890625 
Q 35.15625 6.890625 40.078125 11.328125 
Q 45.015625 15.765625 45.015625 23.390625 
Q 45.015625 31 40.078125 35.4375 
Q 35.15625 39.890625 26.703125 39.890625 
Q 22.75 39.890625 18.8125 39.015625 
Q 14.890625 38.140625 10.796875 36.28125 
z
" id="DejaVuSans-53"/>
      </defs>
      <g transform="translate(193.44167 479.819238)scale(0.1 -0.1)">
       <use xlink:href="#DejaVuSans-53"/>
      </g>
     </g>
    </g>
    <g id="xtick_3">
     <g id="line2d_5">
      <path clip-path="url(#pcb41776b3d)" d="M 280.321633 465.2208 
L 280.321633 62.7264 
" style="fill:none;stroke:#b0b0b0;stroke-linecap:square;stroke-width:0.8;"/>
     </g>
     <g id="line2d_6">
      <g>
       <use style="stroke:#000000;stroke-width:0.8;" x="280.321633" xlink:href="#m8a0bb54f88" y="465.2208"/>
      </g>
     </g>
     <g id="text_3">
      <!-- 10 -->
      <defs>
       <path d="M 12.40625 8.296875 
L 28.515625 8.296875 
L 28.515625 63.921875 
L 10.984375 60.40625 
L 10.984375 69.390625 
L 28.421875 72.90625 
L 38.28125 72.90625 
L 38.28125 8.296875 
L 54.390625 8.296875 
L 54.390625 0 
L 12.40625 0 
z
" id="DejaVuSans-49"/>
      </defs>
      <g transform="translate(273.959133 479.819238)scale(0.1 -0.1)">
       <use xlink:href="#DejaVuSans-49"/>
       <use x="63.623047" xlink:href="#DejaVuSans-48"/>
      </g>
     </g>
    </g>
    <g id="xtick_4">
     <g id="line2d_7">
      <path clip-path="url(#pcb41776b3d)" d="M 364.020345 465.2208 
L 364.020345 62.7264 
" style="fill:none;stroke:#b0b0b0;stroke-linecap:square;stroke-width:0.8;"/>
     </g>
     <g id="line2d_8">
      <g>
       <use style="stroke:#000000;stroke-width:0.8;" x="364.020345" xlink:href="#m8a0bb54f88" y="465.2208"/>
      </g>
     </g>
     <g id="text_4">
      <!-- 15 -->
      <g transform="translate(357.657845 479.819238)scale(0.1 -0.1)">
       <use xlink:href="#DejaVuSans-49"/>
       <use x="63.623047" xlink:href="#DejaVuSans-53"/>
      </g>
     </g>
    </g>
    <g id="xtick_5">
     <g id="line2d_9">
      <path clip-path="url(#pcb41776b3d)" d="M 447.719057 465.2208 
L 447.719057 62.7264 
" style="fill:none;stroke:#b0b0b0;stroke-linecap:square;stroke-width:0.8;"/>
     </g>
     <g id="line2d_10">
      <g>
       <use style="stroke:#000000;stroke-width:0.8;" x="447.719057" xlink:href="#m8a0bb54f88" y="465.2208"/>
      </g>
     </g>
     <g id="text_5">
      <!-- 20 -->
      <defs>
       <path d="M 19.1875 8.296875 
L 53.609375 8.296875 
L 53.609375 0 
L 7.328125 0 
L 7.328125 8.296875 
Q 12.9375 14.109375 22.625 23.890625 
Q 32.328125 33.6875 34.8125 36.53125 
Q 39.546875 41.84375 41.421875 45.53125 
Q 43.3125 49.21875 43.3125 52.78125 
Q 43.3125 58.59375 39.234375 62.25 
Q 35.15625 65.921875 28.609375 65.921875 
Q 23.96875 65.921875 18.8125 64.3125 
Q 13.671875 62.703125 7.8125 59.421875 
L 7.8125 69.390625 
Q 13.765625 71.78125 18.9375 73 
Q 24.125 74.21875 28.421875 74.21875 
Q 39.75 74.21875 46.484375 68.546875 
Q 53.21875 62.890625 53.21875 53.421875 
Q 53.21875 48.921875 51.53125 44.890625 
Q 49.859375 40.875 45.40625 35.40625 
Q 44.1875 33.984375 37.640625 27.21875 
Q 31.109375 20.453125 19.1875 8.296875 
z
" id="DejaVuSans-50"/>
      </defs>
      <g transform="translate(441.356557 479.819238)scale(0.1 -0.1)">
       <use xlink:href="#DejaVuSans-50"/>
       <use x="63.623047" xlink:href="#DejaVuSans-48"/>
      </g>
     </g>
    </g>
    <g id="xtick_6">
     <g id="line2d_11">
      <path clip-path="url(#pcb41776b3d)" d="M 531.41777 465.2208 
L 531.41777 62.7264 
" style="fill:none;stroke:#b0b0b0;stroke-linecap:square;stroke-width:0.8;"/>
     </g>
     <g id="line2d_12">
      <g>
       <use style="stroke:#000000;stroke-width:0.8;" x="531.41777" xlink:href="#m8a0bb54f88" y="465.2208"/>
      </g>
     </g>
     <g id="text_6">
      <!-- 25 -->
      <g transform="translate(525.05527 479.819238)scale(0.1 -0.1)">
       <use xlink:href="#DejaVuSans-50"/>
       <use x="63.623047" xlink:href="#DejaVuSans-53"/>
      </g>
     </g>
    </g>
    <g id="xtick_7">
     <g id="line2d_13">
      <path clip-path="url(#pcb41776b3d)" d="M 615.116482 465.2208 
L 615.116482 62.7264 
" style="fill:none;stroke:#b0b0b0;stroke-linecap:square;stroke-width:0.8;"/>
     </g>
     <g id="line2d_14">
      <g>
       <use style="stroke:#000000;stroke-width:0.8;" x="615.116482" xlink:href="#m8a0bb54f88" y="465.2208"/>
      </g>
     </g>
     <g id="text_7">
      <!-- 30 -->
      <defs>
       <path d="M 40.578125 39.3125 
Q 47.65625 37.796875 51.625 33 
Q 55.609375 28.21875 55.609375 21.1875 
Q 55.609375 10.40625 48.1875 4.484375 
Q 40.765625 -1.421875 27.09375 -1.421875 
Q 22.515625 -1.421875 17.65625 -0.515625 
Q 12.796875 0.390625 7.625 2.203125 
L 7.625 11.71875 
Q 11.71875 9.328125 16.59375 8.109375 
Q 21.484375 6.890625 26.8125 6.890625 
Q 36.078125 6.890625 40.9375 10.546875 
Q 45.796875 14.203125 45.796875 21.1875 
Q 45.796875 27.640625 41.28125 31.265625 
Q 36.765625 34.90625 28.71875 34.90625 
L 20.21875 34.90625 
L 20.21875 43.015625 
L 29.109375 43.015625 
Q 36.375 43.015625 40.234375 45.921875 
Q 44.09375 48.828125 44.09375 54.296875 
Q 44.09375 59.90625 40.109375 62.90625 
Q 36.140625 65.921875 28.71875 65.921875 
Q 24.65625 65.921875 20.015625 65.03125 
Q 15.375 64.15625 9.8125 62.3125 
L 9.8125 71.09375 
Q 15.4375 72.65625 20.34375 73.4375 
Q 25.25 74.21875 29.59375 74.21875 
Q 40.828125 74.21875 47.359375 69.109375 
Q 53.90625 64.015625 53.90625 55.328125 
Q 53.90625 49.265625 50.4375 45.09375 
Q 46.96875 40.921875 40.578125 39.3125 
z
" id="DejaVuSans-51"/>
      </defs>
      <g transform="translate(608.753982 479.819238)scale(0.1 -0.1)">
       <use xlink:href="#DejaVuSans-51"/>
       <use x="63.623047" xlink:href="#DejaVuSans-48"/>
      </g>
     </g>
    </g>
    <g id="text_8">
     <!-- x -->
     <defs>
      <path d="M 54.890625 54.6875 
L 35.109375 28.078125 
L 55.90625 0 
L 45.3125 0 
L 29.390625 21.484375 
L 13.484375 0 
L 2.875 0 
L 24.125 28.609375 
L 4.6875 54.6875 
L 15.28125 54.6875 
L 29.78125 35.203125 
L 44.28125 54.6875 
z
" id="DejaVuSans-120"/>
     </defs>
     <g transform="translate(380.800625 493.497363)scale(0.1 -0.1)">
      <use xlink:href="#DejaVuSans-120"/>
     </g>
    </g>
   </g>
   <g id="matplotlib.axis_2">
    <g id="ytick_1">
     <g id="line2d_15">
      <path clip-path="url(#pcb41776b3d)" d="M 93.6 423.092679 
L 673.92 423.092679 
" style="fill:none;stroke:#b0b0b0;stroke-linecap:square;stroke-width:0.8;"/>
     </g>
     <g id="line2d_16">
      <defs>
       <path d="M 0 0 
L -3.5 0 
" id="m84f54c0c5f" style="stroke:#000000;stroke-width:0.8;"/>
      </defs>
      <g>
       <use style="stroke:#000000;stroke-width:0.8;" x="93.6" xlink:href="#m84f54c0c5f" y="423.092679"/>
      </g>
     </g>
     <g id="text_9">
      <!-- −0.4 -->
      <defs>
       <path d="M 10.59375 35.5 
L 73.1875 35.5 
L 73.1875 27.203125 
L 10.59375 27.203125 
z
" id="DejaVuSans-8722"/>
       <path d="M 10.6875 12.40625 
L 21 12.40625 
L 21 0 
L 10.6875 0 
z
" id="DejaVuSans-46"/>
       <path d="M 37.796875 64.3125 
L 12.890625 25.390625 
L 37.796875 25.390625 
z
M 35.203125 72.90625 
L 47.609375 72.90625 
L 47.609375 25.390625 
L 58.015625 25.390625 
L 58.015625 17.1875 
L 47.609375 17.1875 
L 47.609375 0 
L 37.796875 0 
L 37.796875 17.1875 
L 4.890625 17.1875 
L 4.890625 26.703125 
z
" id="DejaVuSans-52"/>
      </defs>
      <g transform="translate(62.317188 426.891898)scale(0.1 -0.1)">
       <use xlink:href="#DejaVuSans-8722"/>
       <use x="83.789062" xlink:href="#DejaVuSans-48"/>
       <use x="147.412109" xlink:href="#DejaVuSans-46"/>
       <use x="179.199219" xlink:href="#DejaVuSans-52"/>
      </g>
     </g>
    </g>
    <g id="ytick_2">
     <g id="line2d_17">
      <path clip-path="url(#pcb41776b3d)" d="M 93.6 363.434509 
L 673.92 363.434509 
" style="fill:none;stroke:#b0b0b0;stroke-linecap:square;stroke-width:0.8;"/>
     </g>
     <g id="line2d_18">
      <g>
       <use style="stroke:#000000;stroke-width:0.8;" x="93.6" xlink:href="#m84f54c0c5f" y="363.434509"/>
      </g>
     </g>
     <g id="text_10">
      <!-- −0.3 -->
      <g transform="translate(62.317188 367.233727)scale(0.1 -0.1)">
       <use xlink:href="#DejaVuSans-8722"/>
       <use x="83.789062" xlink:href="#DejaVuSans-48"/>
       <use x="147.412109" xlink:href="#DejaVuSans-46"/>
       <use x="179.199219" xlink:href="#DejaVuSans-51"/>
      </g>
     </g>
    </g>
    <g id="ytick_3">
     <g id="line2d_19">
      <path clip-path="url(#pcb41776b3d)" d="M 93.6 303.776338 
L 673.92 303.776338 
" style="fill:none;stroke:#b0b0b0;stroke-linecap:square;stroke-width:0.8;"/>
     </g>
     <g id="line2d_20">
      <g>
       <use style="stroke:#000000;stroke-width:0.8;" x="93.6" xlink:href="#m84f54c0c5f" y="303.776338"/>
      </g>
     </g>
     <g id="text_11">
      <!-- −0.2 -->
      <g transform="translate(62.317188 307.575557)scale(0.1 -0.1)">
       <use xlink:href="#DejaVuSans-8722"/>
       <use x="83.789062" xlink:href="#DejaVuSans-48"/>
       <use x="147.412109" xlink:href="#DejaVuSans-46"/>
       <use x="179.199219" xlink:href="#DejaVuSans-50"/>
      </g>
     </g>
    </g>
    <g id="ytick_4">
     <g id="line2d_21">
      <path clip-path="url(#pcb41776b3d)" d="M 93.6 244.118168 
L 673.92 244.118168 
" style="fill:none;stroke:#b0b0b0;stroke-linecap:square;stroke-width:0.8;"/>
     </g>
     <g id="line2d_22">
      <g>
       <use style="stroke:#000000;stroke-width:0.8;" x="93.6" xlink:href="#m84f54c0c5f" y="244.118168"/>
      </g>
     </g>
     <g id="text_12">
      <!-- −0.1 -->
      <g transform="translate(62.317188 247.917386)scale(0.1 -0.1)">
       <use xlink:href="#DejaVuSans-8722"/>
       <use x="83.789062" xlink:href="#DejaVuSans-48"/>
       <use x="147.412109" xlink:href="#DejaVuSans-46"/>
       <use x="179.199219" xlink:href="#DejaVuSans-49"/>
      </g>
     </g>
    </g>
    <g id="ytick_5">
     <g id="line2d_23">
      <path clip-path="url(#pcb41776b3d)" d="M 93.6 184.459997 
L 673.92 184.459997 
" style="fill:none;stroke:#b0b0b0;stroke-linecap:square;stroke-width:0.8;"/>
     </g>
     <g id="line2d_24">
      <g>
       <use style="stroke:#000000;stroke-width:0.8;" x="93.6" xlink:href="#m84f54c0c5f" y="184.459997"/>
      </g>
     </g>
     <g id="text_13">
      <!-- 0.0 -->
      <g transform="translate(70.696875 188.259216)scale(0.1 -0.1)">
       <use xlink:href="#DejaVuSans-48"/>
       <use x="63.623047" xlink:href="#DejaVuSans-46"/>
       <use x="95.410156" xlink:href="#DejaVuSans-48"/>
      </g>
     </g>
    </g>
    <g id="ytick_6">
     <g id="line2d_25">
      <path clip-path="url(#pcb41776b3d)" d="M 93.6 124.801827 
L 673.92 124.801827 
" style="fill:none;stroke:#b0b0b0;stroke-linecap:square;stroke-width:0.8;"/>
     </g>
     <g id="line2d_26">
      <g>
       <use style="stroke:#000000;stroke-width:0.8;" x="93.6" xlink:href="#m84f54c0c5f" y="124.801827"/>
      </g>
     </g>
     <g id="text_14">
      <!-- 0.1 -->
      <g transform="translate(70.696875 128.601046)scale(0.1 -0.1)">
       <use xlink:href="#DejaVuSans-48"/>
       <use x="63.623047" xlink:href="#DejaVuSans-46"/>
       <use x="95.410156" xlink:href="#DejaVuSans-49"/>
      </g>
     </g>
    </g>
    <g id="ytick_7">
     <g id="line2d_27">
      <path clip-path="url(#pcb41776b3d)" d="M 93.6 65.143656 
L 673.92 65.143656 
" style="fill:none;stroke:#b0b0b0;stroke-linecap:square;stroke-width:0.8;"/>
     </g>
     <g id="line2d_28">
      <g>
       <use style="stroke:#000000;stroke-width:0.8;" x="93.6" xlink:href="#m84f54c0c5f" y="65.143656"/>
      </g>
     </g>
     <g id="text_15">
      <!-- 0.2 -->
      <g transform="translate(70.696875 68.942875)scale(0.1 -0.1)">
       <use xlink:href="#DejaVuSans-48"/>
       <use x="63.623047" xlink:href="#DejaVuSans-46"/>
       <use x="95.410156" xlink:href="#DejaVuSans-50"/>
      </g>
     </g>
    </g>
    <g id="text_16">
     <!-- y -->
     <defs>
      <path d="M 32.171875 -5.078125 
Q 28.375 -14.84375 24.75 -17.8125 
Q 21.140625 -20.796875 15.09375 -20.796875 
L 7.90625 -20.796875 
L 7.90625 -13.28125 
L 13.1875 -13.28125 
Q 16.890625 -13.28125 18.9375 -11.515625 
Q 21 -9.765625 23.484375 -3.21875 
L 25.09375 0.875 
L 2.984375 54.6875 
L 12.5 54.6875 
L 29.59375 11.921875 
L 46.6875 54.6875 
L 56.203125 54.6875 
z
" id="DejaVuSans-121"/>
     </defs>
     <g transform="translate(56.2375 266.932975)rotate(-90)scale(0.1 -0.1)">
      <use xlink:href="#DejaVuSans-121"/>
     </g>
    </g>
   </g>
   <g id="line2d_29">
    <path clip-path="url(#pcb41776b3d)" d="M 123.442089 304.543986 
L 128.70103 355.753086 
L 133.960038 397.055599 
L 139.218995 426.245719 
L 144.477786 441.951251 
L 149.736743 443.716295 
L 154.995701 432.013288 
L 160.254658 408.191407 
L 165.513616 374.358172 
L 170.772573 333.208196 
L 176.031531 287.812414 
L 181.290488 241.384779 
L 186.549446 197.044868 
L 191.808403 157.594829 
L 197.067193 125.32848 
L 202.326151 101.880961 
L 207.585108 88.143969 
L 212.844066 84.231234 
L 218.103023 89.51091 
L 223.361981 102.693636 
L 228.620938 121.968448 
L 233.879896 145.173948 
L 239.138853 169.989656 
L 244.397811 194.131295 
L 249.656601 215.533322 
L 254.915558 232.508075 
L 260.174516 243.859639 
L 265.433473 248.958086 
L 270.692431 247.759389 
L 275.951388 240.775741 
L 281.210513 228.999728 
L 286.468466 213.796342 
L 291.728093 196.74714 
L 296.98772 179.524228 
L 302.245673 163.7253 
L 307.5053 150.720294 
L 312.763254 141.57156 
L 318.022881 136.923396 
L 323.282508 136.985756 
L 328.540461 141.520895 
L 333.800088 149.895773 
L 339.058041 161.144945 
L 344.317668 174.092346 
L 349.577295 187.446384 
L 354.835248 199.932728 
L 360.094875 210.422946 
L 365.352829 218.007607 
L 370.612456 222.09581 
L 375.872083 222.439391 
L 381.130036 219.154678 
L 386.389663 212.689928 
L 391.647616 203.780592 
L 396.907243 193.355519 
L 402.165196 182.463814 
L 407.424823 172.14855 
L 412.68445 163.372007 
L 417.942403 156.916403 
L 423.202031 153.3126 
L 428.459984 152.810167 
L 433.719611 155.354646 
L 438.979238 160.605676 
L 444.237191 167.973894 
L 449.496818 176.694704 
L 454.754771 185.889161 
L 460.014398 194.670596 
L 465.274025 202.209571 
L 470.531978 207.820675 
L 475.791605 211.026828 
L 481.049559 211.588382 
L 486.309186 209.526665 
L 491.567139 205.113374 
L 496.826766 198.83322 
L 502.086393 191.339777 
L 507.344346 183.386528 
L 512.603973 175.743532 
L 517.861926 169.140392 
L 523.121553 164.180073 
L 528.38118 161.299389 
L 533.639134 160.722688 
L 538.898761 162.44795 
L 544.156714 166.252059 
L 549.416341 171.721393 
L 554.675968 178.2893 
L 559.933921 185.295788 
L 565.193548 192.060795 
L 570.451501 197.934935 
L 575.711128 202.376644 
L 580.970755 204.988481 
L 586.228708 205.559809 
L 591.488336 204.080928 
L 596.746289 200.739898 
L 602.005916 195.896851 
L 607.263869 190.053507 
L 612.523496 183.790834 
L 617.783123 177.723347 
L 623.041076 172.433863 
L 628.300703 168.413545 
L 633.558656 166.026947 
L 638.818283 165.47018 
L 644.077911 166.761661 
" style="fill:none;stroke:#ff0000;stroke-linecap:square;stroke-width:1.5;"/>
   </g>
   <g id="patch_3">
    <path d="M 93.6 465.2208 
L 93.6 62.7264 
" style="fill:none;stroke:#000000;stroke-linecap:square;stroke-linejoin:miter;stroke-width:0.8;"/>
   </g>
   <g id="patch_4">
    <path d="M 673.92 465.2208 
L 673.92 62.7264 
" style="fill:none;stroke:#000000;stroke-linecap:square;stroke-linejoin:miter;stroke-width:0.8;"/>
   </g>
   <g id="patch_5">
    <path d="M 93.6 465.2208 
L 673.92 465.2208 
" style="fill:none;stroke:#000000;stroke-linecap:square;stroke-linejoin:miter;stroke-width:0.8;"/>
   </g>
   <g id="patch_6">
    <path d="M 93.6 62.7264 
L 673.92 62.7264 
" style="fill:none;stroke:#000000;stroke-linecap:square;stroke-linejoin:miter;stroke-width:0.8;"/>
   </g>
   <g id="text_17">
    <!-- Numerical Derivative of $\frac{sin(x)}{x}$ -->
    <defs>
     <path d="M 9.8125 72.90625 
L 23.09375 72.90625 
L 55.421875 11.921875 
L 55.421875 72.90625 
L 64.984375 72.90625 
L 64.984375 0 
L 51.703125 0 
L 19.390625 60.984375 
L 19.390625 0 
L 9.8125 0 
z
" id="DejaVuSans-78"/>
     <path d="M 8.5 21.578125 
L 8.5 54.6875 
L 17.484375 54.6875 
L 17.484375 21.921875 
Q 17.484375 14.15625 20.5 10.265625 
Q 23.53125 6.390625 29.59375 6.390625 
Q 36.859375 6.390625 41.078125 11.03125 
Q 45.3125 15.671875 45.3125 23.6875 
L 45.3125 54.6875 
L 54.296875 54.6875 
L 54.296875 0 
L 45.3125 0 
L 45.3125 8.40625 
Q 42.046875 3.421875 37.71875 1 
Q 33.40625 -1.421875 27.6875 -1.421875 
Q 18.265625 -1.421875 13.375 4.4375 
Q 8.5 10.296875 8.5 21.578125 
z
M 31.109375 56 
z
" id="DejaVuSans-117"/>
     <path d="M 52 44.1875 
Q 55.375 50.25 60.0625 53.125 
Q 64.75 56 71.09375 56 
Q 79.640625 56 84.28125 50.015625 
Q 88.921875 44.046875 88.921875 33.015625 
L 88.921875 0 
L 79.890625 0 
L 79.890625 32.71875 
Q 79.890625 40.578125 77.09375 44.375 
Q 74.3125 48.1875 68.609375 48.1875 
Q 61.625 48.1875 57.5625 43.546875 
Q 53.515625 38.921875 53.515625 30.90625 
L 53.515625 0 
L 44.484375 0 
L 44.484375 32.71875 
Q 44.484375 40.625 41.703125 44.40625 
Q 38.921875 48.1875 33.109375 48.1875 
Q 26.21875 48.1875 22.15625 43.53125 
Q 18.109375 38.875 18.109375 30.90625 
L 18.109375 0 
L 9.078125 0 
L 9.078125 54.6875 
L 18.109375 54.6875 
L 18.109375 46.1875 
Q 21.1875 51.21875 25.484375 53.609375 
Q 29.78125 56 35.6875 56 
Q 41.65625 56 45.828125 52.96875 
Q 50 49.953125 52 44.1875 
z
" id="DejaVuSans-109"/>
     <path d="M 56.203125 29.59375 
L 56.203125 25.203125 
L 14.890625 25.203125 
Q 15.484375 15.921875 20.484375 11.0625 
Q 25.484375 6.203125 34.421875 6.203125 
Q 39.59375 6.203125 44.453125 7.46875 
Q 49.3125 8.734375 54.109375 11.28125 
L 54.109375 2.78125 
Q 49.265625 0.734375 44.1875 -0.34375 
Q 39.109375 -1.421875 33.890625 -1.421875 
Q 20.796875 -1.421875 13.15625 6.1875 
Q 5.515625 13.8125 5.515625 26.8125 
Q 5.515625 40.234375 12.765625 48.109375 
Q 20.015625 56 32.328125 56 
Q 43.359375 56 49.78125 48.890625 
Q 56.203125 41.796875 56.203125 29.59375 
z
M 47.21875 32.234375 
Q 47.125 39.59375 43.09375 43.984375 
Q 39.0625 48.390625 32.421875 48.390625 
Q 24.90625 48.390625 20.390625 44.140625 
Q 15.875 39.890625 15.1875 32.171875 
z
" id="DejaVuSans-101"/>
     <path d="M 41.109375 46.296875 
Q 39.59375 47.171875 37.8125 47.578125 
Q 36.03125 48 33.890625 48 
Q 26.265625 48 22.1875 43.046875 
Q 18.109375 38.09375 18.109375 28.8125 
L 18.109375 0 
L 9.078125 0 
L 9.078125 54.6875 
L 18.109375 54.6875 
L 18.109375 46.1875 
Q 20.953125 51.171875 25.484375 53.578125 
Q 30.03125 56 36.53125 56 
Q 37.453125 56 38.578125 55.875 
Q 39.703125 55.765625 41.0625 55.515625 
z
" id="DejaVuSans-114"/>
     <path d="M 9.421875 54.6875 
L 18.40625 54.6875 
L 18.40625 0 
L 9.421875 0 
z
M 9.421875 75.984375 
L 18.40625 75.984375 
L 18.40625 64.59375 
L 9.421875 64.59375 
z
" id="DejaVuSans-105"/>
     <path d="M 48.78125 52.59375 
L 48.78125 44.1875 
Q 44.96875 46.296875 41.140625 47.34375 
Q 37.3125 48.390625 33.40625 48.390625 
Q 24.65625 48.390625 19.8125 42.84375 
Q 14.984375 37.3125 14.984375 27.296875 
Q 14.984375 17.28125 19.8125 11.734375 
Q 24.65625 6.203125 33.40625 6.203125 
Q 37.3125 6.203125 41.140625 7.25 
Q 44.96875 8.296875 48.78125 10.40625 
L 48.78125 2.09375 
Q 45.015625 0.34375 40.984375 -0.53125 
Q 36.96875 -1.421875 32.421875 -1.421875 
Q 20.0625 -1.421875 12.78125 6.34375 
Q 5.515625 14.109375 5.515625 27.296875 
Q 5.515625 40.671875 12.859375 48.328125 
Q 20.21875 56 33.015625 56 
Q 37.15625 56 41.109375 55.140625 
Q 45.0625 54.296875 48.78125 52.59375 
z
" id="DejaVuSans-99"/>
     <path d="M 34.28125 27.484375 
Q 23.390625 27.484375 19.1875 25 
Q 14.984375 22.515625 14.984375 16.5 
Q 14.984375 11.71875 18.140625 8.90625 
Q 21.296875 6.109375 26.703125 6.109375 
Q 34.1875 6.109375 38.703125 11.40625 
Q 43.21875 16.703125 43.21875 25.484375 
L 43.21875 27.484375 
z
M 52.203125 31.203125 
L 52.203125 0 
L 43.21875 0 
L 43.21875 8.296875 
Q 40.140625 3.328125 35.546875 0.953125 
Q 30.953125 -1.421875 24.3125 -1.421875 
Q 15.921875 -1.421875 10.953125 3.296875 
Q 6 8.015625 6 15.921875 
Q 6 25.140625 12.171875 29.828125 
Q 18.359375 34.515625 30.609375 34.515625 
L 43.21875 34.515625 
L 43.21875 35.40625 
Q 43.21875 41.609375 39.140625 45 
Q 35.0625 48.390625 27.6875 48.390625 
Q 23 48.390625 18.546875 47.265625 
Q 14.109375 46.140625 10.015625 43.890625 
L 10.015625 52.203125 
Q 14.9375 54.109375 19.578125 55.046875 
Q 24.21875 56 28.609375 56 
Q 40.484375 56 46.34375 49.84375 
Q 52.203125 43.703125 52.203125 31.203125 
z
" id="DejaVuSans-97"/>
     <path d="M 9.421875 75.984375 
L 18.40625 75.984375 
L 18.40625 0 
L 9.421875 0 
z
" id="DejaVuSans-108"/>
     <path id="DejaVuSans-32"/>
     <path d="M 19.671875 64.796875 
L 19.671875 8.109375 
L 31.59375 8.109375 
Q 46.6875 8.109375 53.6875 14.9375 
Q 60.6875 21.78125 60.6875 36.53125 
Q 60.6875 51.171875 53.6875 57.984375 
Q 46.6875 64.796875 31.59375 64.796875 
z
M 9.8125 72.90625 
L 30.078125 72.90625 
Q 51.265625 72.90625 61.171875 64.09375 
Q 71.09375 55.28125 71.09375 36.53125 
Q 71.09375 17.671875 61.125 8.828125 
Q 51.171875 0 30.078125 0 
L 9.8125 0 
z
" id="DejaVuSans-68"/>
     <path d="M 2.984375 54.6875 
L 12.5 54.6875 
L 29.59375 8.796875 
L 46.6875 54.6875 
L 56.203125 54.6875 
L 35.6875 0 
L 23.484375 0 
z
" id="DejaVuSans-118"/>
     <path d="M 18.3125 70.21875 
L 18.3125 54.6875 
L 36.8125 54.6875 
L 36.8125 47.703125 
L 18.3125 47.703125 
L 18.3125 18.015625 
Q 18.3125 11.328125 20.140625 9.421875 
Q 21.96875 7.515625 27.59375 7.515625 
L 36.8125 7.515625 
L 36.8125 0 
L 27.59375 0 
Q 17.1875 0 13.234375 3.875 
Q 9.28125 7.765625 9.28125 18.015625 
L 9.28125 47.703125 
L 2.6875 47.703125 
L 2.6875 54.6875 
L 9.28125 54.6875 
L 9.28125 70.21875 
z
" id="DejaVuSans-116"/>
     <path d="M 30.609375 48.390625 
Q 23.390625 48.390625 19.1875 42.75 
Q 14.984375 37.109375 14.984375 27.296875 
Q 14.984375 17.484375 19.15625 11.84375 
Q 23.34375 6.203125 30.609375 6.203125 
Q 37.796875 6.203125 41.984375 11.859375 
Q 46.1875 17.53125 46.1875 27.296875 
Q 46.1875 37.015625 41.984375 42.703125 
Q 37.796875 48.390625 30.609375 48.390625 
z
M 30.609375 56 
Q 42.328125 56 49.015625 48.375 
Q 55.71875 40.765625 55.71875 27.296875 
Q 55.71875 13.875 49.015625 6.21875 
Q 42.328125 -1.421875 30.609375 -1.421875 
Q 18.84375 -1.421875 12.171875 6.21875 
Q 5.515625 13.875 5.515625 27.296875 
Q 5.515625 40.765625 12.171875 48.375 
Q 18.84375 56 30.609375 56 
z
" id="DejaVuSans-111"/>
     <path d="M 37.109375 75.984375 
L 37.109375 68.5 
L 28.515625 68.5 
Q 23.6875 68.5 21.796875 66.546875 
Q 19.921875 64.59375 19.921875 59.515625 
L 19.921875 54.6875 
L 34.71875 54.6875 
L 34.71875 47.703125 
L 19.921875 47.703125 
L 19.921875 0 
L 10.890625 0 
L 10.890625 47.703125 
L 2.296875 47.703125 
L 2.296875 54.6875 
L 10.890625 54.6875 
L 10.890625 58.5 
Q 10.890625 67.625 15.140625 71.796875 
Q 19.390625 75.984375 28.609375 75.984375 
z
" id="DejaVuSans-102"/>
     <path d="M 50 53.078125 
L 48.296875 44.578125 
Q 44.734375 46.53125 40.765625 47.5 
Q 36.8125 48.484375 32.625 48.484375 
Q 25.53125 48.484375 21.453125 46.0625 
Q 17.390625 43.65625 17.390625 39.5 
Q 17.390625 34.671875 26.859375 32.078125 
Q 27.59375 31.890625 27.9375 31.78125 
L 30.8125 30.90625 
Q 39.796875 28.421875 42.796875 25.6875 
Q 45.796875 22.953125 45.796875 18.21875 
Q 45.796875 9.515625 38.890625 4.046875 
Q 31.984375 -1.421875 20.796875 -1.421875 
Q 16.453125 -1.421875 11.671875 -0.578125 
Q 6.890625 0.25 1.125 2 
L 2.875 11.28125 
Q 7.8125 8.734375 12.59375 7.421875 
Q 17.390625 6.109375 21.78125 6.109375 
Q 28.375 6.109375 32.5 8.9375 
Q 36.625 11.765625 36.625 16.109375 
Q 36.625 20.796875 25.78125 23.6875 
L 24.859375 23.921875 
L 21.78125 24.703125 
Q 14.9375 26.515625 11.765625 29.46875 
Q 8.59375 32.421875 8.59375 37.015625 
Q 8.59375 45.75 15.15625 50.875 
Q 21.734375 56 33.015625 56 
Q 37.453125 56 41.671875 55.265625 
Q 45.90625 54.546875 50 53.078125 
z
" id="DejaVuSans-Oblique-115"/>
     <path d="M 18.3125 75.984375 
L 27.296875 75.984375 
L 25.09375 64.59375 
L 16.109375 64.59375 
z
M 14.203125 54.6875 
L 23.1875 54.6875 
L 12.5 0 
L 3.515625 0 
z
" id="DejaVuSans-Oblique-105"/>
     <path d="M 55.71875 33.015625 
L 49.3125 0 
L 40.28125 0 
L 46.6875 32.671875 
Q 47.125 34.96875 47.359375 36.71875 
Q 47.609375 38.484375 47.609375 39.5 
Q 47.609375 43.609375 45.015625 45.890625 
Q 42.4375 48.1875 37.796875 48.1875 
Q 30.5625 48.1875 25.34375 43.375 
Q 20.125 38.578125 18.5 30.328125 
L 12.5 0 
L 3.515625 0 
L 14.109375 54.6875 
L 23.09375 54.6875 
L 21.296875 46.09375 
Q 25.046875 50.828125 30.3125 53.40625 
Q 35.59375 56 41.40625 56 
Q 48.640625 56 52.609375 52.09375 
Q 56.59375 48.1875 56.59375 41.109375 
Q 56.59375 39.359375 56.375 37.359375 
Q 56.15625 35.359375 55.71875 33.015625 
z
" id="DejaVuSans-Oblique-110"/>
     <path d="M 31 75.875 
Q 24.46875 64.65625 21.28125 53.65625 
Q 18.109375 42.671875 18.109375 31.390625 
Q 18.109375 20.125 21.3125 9.0625 
Q 24.515625 -2 31 -13.1875 
L 23.1875 -13.1875 
Q 15.875 -1.703125 12.234375 9.375 
Q 8.59375 20.453125 8.59375 31.390625 
Q 8.59375 42.28125 12.203125 53.3125 
Q 15.828125 64.359375 23.1875 75.875 
z
" id="DejaVuSans-40"/>
     <path d="M 60.015625 54.6875 
L 34.90625 27.875 
L 50.296875 0 
L 39.984375 0 
L 28.421875 21.6875 
L 8.296875 0 
L -2.59375 0 
L 24.3125 28.8125 
L 10.015625 54.6875 
L 20.3125 54.6875 
L 30.8125 34.90625 
L 49.125 54.6875 
z
" id="DejaVuSans-Oblique-120"/>
     <path d="M 8.015625 75.875 
L 15.828125 75.875 
Q 23.140625 64.359375 26.78125 53.3125 
Q 30.421875 42.28125 30.421875 31.390625 
Q 30.421875 20.453125 26.78125 9.375 
Q 23.140625 -1.703125 15.828125 -13.1875 
L 8.015625 -13.1875 
Q 14.5 -2 17.703125 9.0625 
Q 20.90625 20.125 20.90625 31.390625 
Q 20.90625 42.671875 17.703125 53.65625 
Q 14.5 64.65625 8.015625 75.875 
z
" id="DejaVuSans-41"/>
    </defs>
    <g transform="translate(298.14 56.7264)scale(0.12 -0.12)">
     <use transform="translate(0 0.782813)" xlink:href="#DejaVuSans-78"/>
     <use transform="translate(74.804688 0.782813)" xlink:href="#DejaVuSans-117"/>
     <use transform="translate(138.183594 0.782813)" xlink:href="#DejaVuSans-109"/>
     <use transform="translate(235.595703 0.782813)" xlink:href="#DejaVuSans-101"/>
     <use transform="translate(297.119141 0.782813)" xlink:href="#DejaVuSans-114"/>
     <use transform="translate(338.232422 0.782813)" xlink:href="#DejaVuSans-105"/>
     <use transform="translate(366.015625 0.782813)" xlink:href="#DejaVuSans-99"/>
     <use transform="translate(420.996094 0.782813)" xlink:href="#DejaVuSans-97"/>
     <use transform="translate(482.275391 0.782813)" xlink:href="#DejaVuSans-108"/>
     <use transform="translate(510.058594 0.782813)" xlink:href="#DejaVuSans-32"/>
     <use transform="translate(541.845703 0.782813)" xlink:href="#DejaVuSans-68"/>
     <use transform="translate(618.847656 0.782813)" xlink:href="#DejaVuSans-101"/>
     <use transform="translate(680.371094 0.782813)" xlink:href="#DejaVuSans-114"/>
     <use transform="translate(721.484375 0.782813)" xlink:href="#DejaVuSans-105"/>
     <use transform="translate(749.267578 0.782813)" xlink:href="#DejaVuSans-118"/>
     <use transform="translate(808.447266 0.782813)" xlink:href="#DejaVuSans-97"/>
     <use transform="translate(869.726562 0.782813)" xlink:href="#DejaVuSans-116"/>
     <use transform="translate(908.935547 0.782813)" xlink:href="#DejaVuSans-105"/>
     <use transform="translate(936.71875 0.782813)" xlink:href="#DejaVuSans-118"/>
     <use transform="translate(995.898438 0.782813)" xlink:href="#DejaVuSans-101"/>
     <use transform="translate(1057.421875 0.782813)" xlink:href="#DejaVuSans-32"/>
     <use transform="translate(1089.208984 0.782813)" xlink:href="#DejaVuSans-111"/>
     <use transform="translate(1150.390625 0.782813)" xlink:href="#DejaVuSans-102"/>
     <use transform="translate(1185.595703 0.782813)" xlink:href="#DejaVuSans-32"/>
     <use transform="translate(1217.382812 53.810938)scale(0.7)" xlink:href="#DejaVuSans-Oblique-115"/>
     <use transform="translate(1253.852539 53.810938)scale(0.7)" xlink:href="#DejaVuSans-Oblique-105"/>
     <use transform="translate(1273.300781 53.810938)scale(0.7)" xlink:href="#DejaVuSans-Oblique-110"/>
     <use transform="translate(1317.666016 53.810938)scale(0.7)" xlink:href="#DejaVuSans-40"/>
     <use transform="translate(1344.975586 53.810938)scale(0.7)" xlink:href="#DejaVuSans-Oblique-120"/>
     <use transform="translate(1386.401367 53.810938)scale(0.7)" xlink:href="#DejaVuSans-41"/>
     <use transform="translate(1294.382812 -24.951562)scale(0.7)" xlink:href="#DejaVuSans-Oblique-120"/>
     <path d="M 1217.382812 19.579688 
L 1217.382812 25.829688 
L 1413.710938 25.829688 
L 1413.710938 19.579688 
L 1217.382812 19.579688 
z
"/>
    </g>
   </g>
   <g id="legend_1">
    <g id="patch_7">
     <path d="M 539.998125 100.08265 
L 666.92 100.08265 
Q 668.92 100.08265 668.92 98.08265 
L 668.92 69.7264 
Q 668.92 67.7264 666.92 67.7264 
L 539.998125 67.7264 
Q 537.998125 67.7264 537.998125 69.7264 
L 537.998125 98.08265 
Q 537.998125 100.08265 539.998125 100.08265 
z
" style="fill:#ffffff;opacity:0.8;stroke:#cccccc;stroke-linejoin:miter;"/>
    </g>
    <g id="line2d_30">
     <path d="M 541.998125 75.824838 
L 561.998125 75.824838 
" style="fill:none;stroke:#ff0000;stroke-linecap:square;stroke-width:1.5;"/>
    </g>
    <g id="line2d_31"/>
    <g id="text_18">
     <!-- Analytic Solution -->
     <defs>
      <path d="M 34.1875 63.1875 
L 20.796875 26.90625 
L 47.609375 26.90625 
z
M 28.609375 72.90625 
L 39.796875 72.90625 
L 67.578125 0 
L 57.328125 0 
L 50.6875 18.703125 
L 17.828125 18.703125 
L 11.1875 0 
L 0.78125 0 
z
" id="DejaVuSans-65"/>
      <path d="M 54.890625 33.015625 
L 54.890625 0 
L 45.90625 0 
L 45.90625 32.71875 
Q 45.90625 40.484375 42.875 44.328125 
Q 39.84375 48.1875 33.796875 48.1875 
Q 26.515625 48.1875 22.3125 43.546875 
Q 18.109375 38.921875 18.109375 30.90625 
L 18.109375 0 
L 9.078125 0 
L 9.078125 54.6875 
L 18.109375 54.6875 
L 18.109375 46.1875 
Q 21.34375 51.125 25.703125 53.5625 
Q 30.078125 56 35.796875 56 
Q 45.21875 56 50.046875 50.171875 
Q 54.890625 44.34375 54.890625 33.015625 
z
" id="DejaVuSans-110"/>
      <path d="M 53.515625 70.515625 
L 53.515625 60.890625 
Q 47.90625 63.578125 42.921875 64.890625 
Q 37.9375 66.21875 33.296875 66.21875 
Q 25.25 66.21875 20.875 63.09375 
Q 16.5 59.96875 16.5 54.203125 
Q 16.5 49.359375 19.40625 46.890625 
Q 22.3125 44.4375 30.421875 42.921875 
L 36.375 41.703125 
Q 47.40625 39.59375 52.65625 34.296875 
Q 57.90625 29 57.90625 20.125 
Q 57.90625 9.515625 50.796875 4.046875 
Q 43.703125 -1.421875 29.984375 -1.421875 
Q 24.8125 -1.421875 18.96875 -0.25 
Q 13.140625 0.921875 6.890625 3.21875 
L 6.890625 13.375 
Q 12.890625 10.015625 18.65625 8.296875 
Q 24.421875 6.59375 29.984375 6.59375 
Q 38.421875 6.59375 43.015625 9.90625 
Q 47.609375 13.234375 47.609375 19.390625 
Q 47.609375 24.75 44.3125 27.78125 
Q 41.015625 30.8125 33.5 32.328125 
L 27.484375 33.5 
Q 16.453125 35.6875 11.515625 40.375 
Q 6.59375 45.0625 6.59375 53.421875 
Q 6.59375 63.09375 13.40625 68.65625 
Q 20.21875 74.21875 32.171875 74.21875 
Q 37.3125 74.21875 42.625 73.28125 
Q 47.953125 72.359375 53.515625 70.515625 
z
" id="DejaVuSans-83"/>
     </defs>
     <g transform="translate(569.998125 79.324838)scale(0.1 -0.1)">
      <use xlink:href="#DejaVuSans-65"/>
      <use x="68.408203" xlink:href="#DejaVuSans-110"/>
      <use x="131.787109" xlink:href="#DejaVuSans-97"/>
      <use x="193.066406" xlink:href="#DejaVuSans-108"/>
      <use x="220.849609" xlink:href="#DejaVuSans-121"/>
      <use x="280.029297" xlink:href="#DejaVuSans-116"/>
      <use x="319.238281" xlink:href="#DejaVuSans-105"/>
      <use x="347.021484" xlink:href="#DejaVuSans-99"/>
      <use x="402.001953" xlink:href="#DejaVuSans-32"/>
      <use x="433.789062" xlink:href="#DejaVuSans-83"/>
      <use x="497.265625" xlink:href="#DejaVuSans-111"/>
      <use x="558.447266" xlink:href="#DejaVuSans-108"/>
      <use x="586.230469" xlink:href="#DejaVuSans-117"/>
      <use x="649.609375" xlink:href="#DejaVuSans-116"/>
      <use x="688.818359" xlink:href="#DejaVuSans-105"/>
      <use x="716.601562" xlink:href="#DejaVuSans-111"/>
      <use x="777.783203" xlink:href="#DejaVuSans-110"/>
     </g>
    </g>
    <g id="PathCollection_2">
     <g>
      <use style="fill:#1f77b4;stroke:#1f77b4;" x="551.998125" xlink:href="#m72b608f0b4" y="91.377963"/>
     </g>
    </g>
    <g id="text_19">
     <!-- Numerical Solution -->
     <g transform="translate(569.998125 94.002963)scale(0.1 -0.1)">
      <use xlink:href="#DejaVuSans-78"/>
      <use x="74.804688" xlink:href="#DejaVuSans-117"/>
      <use x="138.183594" xlink:href="#DejaVuSans-109"/>
      <use x="235.595703" xlink:href="#DejaVuSans-101"/>
      <use x="297.119141" xlink:href="#DejaVuSans-114"/>
      <use x="338.232422" xlink:href="#DejaVuSans-105"/>
      <use x="366.015625" xlink:href="#DejaVuSans-99"/>
      <use x="420.996094" xlink:href="#DejaVuSans-97"/>
      <use x="482.275391" xlink:href="#DejaVuSans-108"/>
      <use x="510.058594" xlink:href="#DejaVuSans-32"/>
      <use x="541.845703" xlink:href="#DejaVuSans-83"/>
      <use x="605.322266" xlink:href="#DejaVuSans-111"/>
      <use x="666.503906" xlink:href="#DejaVuSans-108"/>
      <use x="694.287109" xlink:href="#DejaVuSans-117"/>
      <use x="757.666016" xlink:href="#DejaVuSans-116"/>
      <use x="796.875" xlink:href="#DejaVuSans-105"/>
      <use x="824.658203" xlink:href="#DejaVuSans-111"/>
      <use x="885.839844" xlink:href="#DejaVuSans-110"/>
     </g>
    </g>
   </g>
  </g>
 </g>
 <defs>
  <clipPath id="pcb41776b3d">
   <rect height="402.4944" width="580.32" x="93.6" y="62.7264"/>
  </clipPath>
 </defs>
</svg>
